<?xml version="1.0" encoding="UTF-8"?>
<!DOCTYPE svg PUBLIC "-//W3C//DTD SVG 1.1//EN" "http://www.w3.org/Graphics/SVG/1.1/DTD/svg11.dtd">
<svg xmlns="http://www.w3.org/2000/svg" xmlns:xlink="http://www.w3.org/1999/xlink" version="1.1" width="837px" height="801px" viewBox="-0.5 -0.5 837 801" style="background-color: rgb(255, 255, 255);"><defs><clipPath id="mx-clip-314-85-477-51-0"><rect x="314" y="85" width="477" height="51"/></clipPath><clipPath id="mx-clip-4-701-402-101-0"><rect x="4" y="701" width="402" height="101"/></clipPath><clipPath id="mx-clip-40-85-170-40-0"><rect x="40" y="85" width="170" height="40"/></clipPath><clipPath id="mx-clip-41-366-170-33-0"><rect x="41" y="366" width="170" height="33"/></clipPath><clipPath id="mx-clip-255-354-214-58-0"><rect x="255" y="354" width="214" height="58"/></clipPath><clipPath id="mx-clip-446-701-385-30-0"><rect x="446" y="701" width="385" height="30"/></clipPath></defs><g><path d="M 282 467 L 282 441 L 442 441 L 442 467" fill="rgb(255, 255, 255)" stroke="rgb(0, 0, 0)" stroke-miterlimit="10" pointer-events="all"/><path d="M 282 467 L 282 493 L 442 493 L 442 467" fill="none" stroke="rgb(0, 0, 0)" stroke-miterlimit="10" pointer-events="none"/><path d="M 282 467 L 442 467" fill="none" stroke="rgb(0, 0, 0)" stroke-miterlimit="10" pointer-events="none"/><g fill="rgb(0, 0, 0)" font-family="Helvetica" font-weight="bold" pointer-events="none" text-anchor="middle" font-size="12px"><text x="361.5" y="458.5">GenericCache&lt;T&gt;</text></g><path d="M 38 185 L 38 159 L 214 159 L 214 185" fill="rgb(255, 255, 255)" stroke="rgb(0, 0, 0)" stroke-miterlimit="10" pointer-events="none"/><path d="M 38 185 L 38 218 L 214 218 L 214 185" fill="none" stroke="rgb(0, 0, 0)" stroke-miterlimit="10" pointer-events="none"/><path d="M 38 185 L 214 185" fill="none" stroke="rgb(0, 0, 0)" stroke-miterlimit="10" pointer-events="none"/><g fill="rgb(0, 0, 0)" font-family="Helvetica" font-weight="bold" pointer-events="none" text-anchor="middle" font-size="12px"><text x="125.5" y="176.5">RoomService</text></g><path d="M 214 184 L 352 184 Q 362 184 362 194 L 362 307.76" fill="none" stroke="rgb(0, 0, 0)" stroke-miterlimit="10" pointer-events="none"/><path d="M 358.5 301.88 L 362 308.88 L 365.5 301.88" fill="none" stroke="rgb(0, 0, 0)" stroke-miterlimit="10" pointer-events="none"/><path d="M 310 80 L 310 41 L 794.5 41 L 794.5 80" fill="rgb(255, 255, 255)" stroke="rgb(0, 0, 0)" stroke-miterlimit="10" pointer-events="none"/><path d="M 310 80 L 310 131 L 794.5 131 L 794.5 80" fill="none" stroke="rgb(0, 0, 0)" stroke-miterlimit="10" pointer-events="none"/><path d="M 310 80 L 794.5 80" fill="none" stroke="rgb(0, 0, 0)" stroke-miterlimit="10" pointer-events="none"/><g fill="rgb(0, 0, 0)" font-family="Helvetica" font-weight="bold" pointer-events="none" text-anchor="middle" font-size="12px"><text x="551.75" y="58.5">&lt;&lt; interface &gt;&gt;</text><text x="551.75" y="72.5">BookingServiceInterface</text></g><g fill="rgb(0, 0, 0)" font-family="Helvetica" pointer-events="none" clip-path="url(#mx-clip-314-85-477-51-0)" font-size="12px"><text x="315.5" y="97.5">+ getBookings(Room, LocalDateTime startTime, int weeksForward): List&lt;Booking&gt;</text><text x="315.5" y="111.5">+ refreshBookingCache(): void</text></g><path d="M 0 696 L 0 657 L 410 657 L 410 696" fill="rgb(255, 255, 255)" stroke="rgb(0, 0, 0)" stroke-miterlimit="10" pointer-events="none"/><path d="M 0 696 L 0 797 L 410 797 L 410 696" fill="none" stroke="rgb(0, 0, 0)" stroke-miterlimit="10" pointer-events="none"/><path d="M 0 696 L 410 696" fill="none" stroke="rgb(0, 0, 0)" stroke-miterlimit="10" pointer-events="none"/><g fill="rgb(0, 0, 0)" font-family="Helvetica" font-weight="bold" pointer-events="none" text-anchor="middle" font-size="12px"><text x="204.5" y="674.5">&lt;&lt; interface &gt;&gt;</text><text x="204.5" y="688.5">ChalmersMapsAPIInterface</text></g><g fill="rgb(0, 0, 0)" font-family="Helvetica" pointer-events="none" clip-path="url(#mx-clip-4-701-402-101-0)" font-size="12px"><text x="5.5" y="713.5">+ informationBoard(UUID): JsonObject</text><text x="5.5" y="727.5">+ timeEditSchedule(String identifier, int year, int week): JsonArray</text><text x="5.5" y="741.5">+ route(Location origin, Location destination): JsonObject</text><text x="5.5" y="755.5">+ getInfo(UUID): JsonObject</text><text x="5.5" y="769.5">+ getGeoJsonPOI: JsonObject</text><text x="5.5" y="783.5">+ getGeoJsonBuildings(): JsonObject</text></g><path d="M 595 166 L 595 139.12" fill="none" stroke="rgb(0, 0, 0)" stroke-miterlimit="10" stroke-dasharray="3 3" pointer-events="none"/><path d="M 595 132.12 L 598.5 139.12 L 591.5 139.12 Z" fill="none" stroke="rgb(0, 0, 0)" stroke-miterlimit="10" pointer-events="none"/><path d="M 36 80 L 36 41 L 214 41 L 214 80" fill="rgb(255, 255, 255)" stroke="rgb(0, 0, 0)" stroke-miterlimit="10" pointer-events="none"/><path d="M 36 80 L 36 120 L 214 120 L 214 80" fill="none" stroke="rgb(0, 0, 0)" stroke-miterlimit="10" pointer-events="none"/><path d="M 36 80 L 214 80" fill="none" stroke="rgb(0, 0, 0)" stroke-miterlimit="10" pointer-events="none"/><g fill="rgb(0, 0, 0)" font-family="Helvetica" font-weight="bold" pointer-events="none" text-anchor="middle" font-size="12px"><text x="124.5" y="58.5">&lt;&lt; interface &gt;&gt;</text><text x="124.5" y="72.5">RoomServiceInterface</text></g><g fill="rgb(0, 0, 0)" font-family="Helvetica" pointer-events="none" clip-path="url(#mx-clip-40-85-170-40-0)" font-size="12px"><text x="41.5" y="97.5">+ getRooms(): List&lt;Room&gt;</text><text x="41.5" y="111.5">+ refreshRoomCache(): void</text></g><path d="M 126 159 L 125.42 128.11" fill="none" stroke="rgb(0, 0, 0)" stroke-miterlimit="10" stroke-dasharray="3 3" pointer-events="none"/><path d="M 125.06 121.12 L 128.91 127.93 L 121.92 128.29 Z" fill="none" stroke="rgb(0, 0, 0)" stroke-miterlimit="10" pointer-events="none"/><path d="M 0 583 L 0 557 L 235 557 L 235 583" fill="rgb(255, 255, 255)" stroke="rgb(0, 0, 0)" stroke-miterlimit="10" pointer-events="none"/><path d="M 0 583 L 0 609 L 235 609 L 235 583" fill="none" stroke="rgb(0, 0, 0)" stroke-miterlimit="10" pointer-events="none"/><path d="M 0 583 L 235 583" fill="none" stroke="rgb(0, 0, 0)" stroke-miterlimit="10" pointer-events="none"/><g fill="rgb(0, 0, 0)" font-family="Helvetica" font-weight="bold" pointer-events="none" text-anchor="middle" font-size="12px"><text x="117" y="574.5">RoomProvider&lt;List&lt;Room&gt;&gt;</text></g><path d="M 37 361 L 37 322 L 215 322 L 215 361" fill="rgb(255, 255, 255)" stroke="rgb(0, 0, 0)" stroke-miterlimit="10" pointer-events="none"/><path d="M 37 361 L 37 394 L 215 394 L 215 361" fill="none" stroke="rgb(0, 0, 0)" stroke-miterlimit="10" pointer-events="none"/><path d="M 37 361 L 215 361" fill="none" stroke="rgb(0, 0, 0)" stroke-miterlimit="10" pointer-events="none"/><g fill="rgb(0, 0, 0)" font-family="Helvetica" font-weight="bold" pointer-events="none" text-anchor="middle" font-size="12px"><text x="125.5" y="339.5">&lt;&lt; interface &gt;&gt;</text><text x="125.5" y="353.5">CacheUpdateProvider&lt;T&gt;</text></g><g fill="rgb(0, 0, 0)" font-family="Helvetica" pointer-events="none" clip-path="url(#mx-clip-41-366-170-33-0)" font-size="12px"><text x="42.5" y="378.5">+ getNewDataToCache(): T</text></g><path d="M 362 441 L 362 415.12" fill="none" stroke="rgb(0, 0, 0)" stroke-miterlimit="10" stroke-dasharray="3 3" pointer-events="none"/><path d="M 362 408.12 L 365.5 415.12 L 358.5 415.12 Z" fill="none" stroke="rgb(0, 0, 0)" stroke-miterlimit="10" pointer-events="none"/><path d="M 80 557 L 80 402.12" fill="none" stroke="rgb(0, 0, 0)" stroke-miterlimit="10" stroke-dasharray="3 3" pointer-events="none"/><path d="M 80 395.12 L 83.5 402.12 L 76.5 402.12 Z" fill="none" stroke="rgb(0, 0, 0)" stroke-miterlimit="10" pointer-events="none"/><path d="M 390 192 L 390 166 L 800 166 L 800 192" fill="rgb(255, 255, 255)" stroke="rgb(0, 0, 0)" stroke-miterlimit="10" pointer-events="none"/><path d="M 390 192 L 390 218 L 800 218 L 800 192" fill="none" stroke="rgb(0, 0, 0)" stroke-miterlimit="10" pointer-events="none"/><path d="M 390 192 L 800 192" fill="none" stroke="rgb(0, 0, 0)" stroke-miterlimit="10" pointer-events="none"/><g fill="rgb(0, 0, 0)" font-family="Helvetica" font-weight="bold" pointer-events="none" text-anchor="middle" font-size="12px"><text x="594.5" y="183.5">BookingService</text></g><path d="M 282 467 L 174 467 Q 164 467 164 457 L 164 396.24" fill="none" stroke="rgb(0, 0, 0)" stroke-miterlimit="10" pointer-events="none"/><path d="M 167.5 402.12 L 164 395.12 L 160.5 402.12" fill="none" stroke="rgb(0, 0, 0)" stroke-miterlimit="10" pointer-events="none"/><path d="M 251 358.5 L 217.24 358.06" fill="none" stroke="rgb(0, 0, 0)" stroke-miterlimit="10" stroke-dasharray="3 3" pointer-events="none"/><path d="M 223.21 354.73 L 216.12 358.03 L 223.02 361.72" fill="none" stroke="rgb(0, 0, 0)" stroke-miterlimit="10" pointer-events="none"/><path d="M 205 654.76 L 205 643 Q 205 633 195 633 L 127.5 633 Q 117.5 633 117.5 623 L 117.5 609" fill="none" stroke="rgb(0, 0, 0)" stroke-miterlimit="10" pointer-events="none"/><path d="M 201.5 648.88 L 205 655.88 L 208.5 648.88" fill="none" stroke="rgb(0, 0, 0)" stroke-miterlimit="10" pointer-events="none"/><path d="M 506.25 592 L 506.25 547 L 832.75 547 L 832.75 592" fill="rgb(255, 255, 255)" stroke="rgb(0, 0, 0)" stroke-miterlimit="10" pointer-events="none"/><path d="M 506.25 592 L 506.25 609 L 832.75 609 L 832.75 592" fill="none" stroke="rgb(0, 0, 0)" stroke-miterlimit="10" pointer-events="none"/><path d="M 506.25 592 L 832.75 592" fill="none" stroke="rgb(0, 0, 0)" stroke-miterlimit="10" pointer-events="none"/><g fill="rgb(0, 0, 0)" font-family="Helvetica" font-weight="bold" pointer-events="none" text-anchor="middle" font-size="12px"><text x="669" y="564.5">TimeEditBookingProvider</text><text x="669" y="578.5">&lt;Dictionary&lt;Room, List&lt;Booking&gt;&gt;&gt;</text></g><path d="M 689 547 L 689 537 Q 689 527 679 527 L 136 527 Q 126 527 126 517 L 126 402.12" fill="none" stroke="rgb(0, 0, 0)" stroke-miterlimit="10" stroke-dasharray="3 3" pointer-events="none"/><path d="M 126 395.12 L 129.5 402.12 L 122.5 402.12 Z" fill="none" stroke="rgb(0, 0, 0)" stroke-miterlimit="10" pointer-events="none"/><path d="M 820 547 L 820 17 Q 820 7 810 7 L 161 7 Q 151 7 151 17 L 151 38.76" fill="none" stroke="rgb(0, 0, 0)" stroke-miterlimit="10" pointer-events="none"/><path d="M 147.5 32.88 L 151 39.88 L 154.5 32.88" fill="none" stroke="rgb(0, 0, 0)" stroke-miterlimit="10" pointer-events="none"/><path d="M 390 185 L 372 185 Q 362 185 362 195 L 362 307.76" fill="none" stroke="rgb(0, 0, 0)" stroke-miterlimit="10" pointer-events="none"/><path d="M 358.5 301.88 L 362 308.88 L 365.5 301.88" fill="none" stroke="rgb(0, 0, 0)" stroke-miterlimit="10" pointer-events="none"/><path d="M 251 349 L 251 310 L 473 310 L 473 349" fill="rgb(255, 255, 255)" stroke="rgb(0, 0, 0)" stroke-miterlimit="10" pointer-events="none"/><path d="M 251 349 L 251 407 L 473 407 L 473 349" fill="none" stroke="rgb(0, 0, 0)" stroke-miterlimit="10" pointer-events="none"/><path d="M 251 349 L 473 349" fill="none" stroke="rgb(0, 0, 0)" stroke-miterlimit="10" pointer-events="none"/><g fill="rgb(0, 0, 0)" font-family="Helvetica" font-weight="bold" pointer-events="none" text-anchor="middle" font-size="12px"><text x="361.5" y="327.5">&lt;&lt; interface &gt;&gt;</text><text x="361.5" y="341.5">GenericCacheInterface&lt;T&gt;</text></g><g fill="rgb(0, 0, 0)" font-family="Helvetica" pointer-events="none" clip-path="url(#mx-clip-255-354-214-58-0)" font-size="12px"><text x="256.5" y="366.5">+ refreshCache(): void</text><text x="256.5" y="380.5">+ getLastCacheRefreshInstant: Instant</text><text x="256.5" y="394.5">+ getData(): T</text></g><path d="M 442 696 L 442 657 L 835 657 L 835 696" fill="rgb(255, 255, 255)" stroke="rgb(0, 0, 0)" stroke-miterlimit="10" pointer-events="none"/><path d="M 442 696 L 442 726 L 835 726 L 835 696" fill="none" stroke="rgb(0, 0, 0)" stroke-miterlimit="10" pointer-events="none"/><path d="M 442 696 L 835 696" fill="none" stroke="rgb(0, 0, 0)" stroke-miterlimit="10" pointer-events="none"/><g fill="rgb(0, 0, 0)" font-family="Helvetica" font-weight="bold" pointer-events="none" text-anchor="middle" font-size="12px"><text x="638" y="674.5">&lt;&lt; interface &gt;&gt;</text><text x="638" y="688.5">TimeEditAPIInterface</text></g><g fill="rgb(0, 0, 0)" font-family="Helvetica" pointer-events="none" clip-path="url(#mx-clip-446-701-385-30-0)" font-size="12px"><text x="447.5" y="713.5">+ getSchedule(String, LocalDateTime, LocalDateTime): Calendar</text></g><path d="M 669.5 609 L 669.5 623 Q 669.5 633 659.5 633 L 648.5 633 Q 638.5 633 638.5 643 L 638.5 654.76" fill="none" stroke="rgb(0, 0, 0)" stroke-miterlimit="10" pointer-events="none"/><path d="M 635 648.88 L 638.5 655.88 L 642 648.88" fill="none" stroke="rgb(0, 0, 0)" stroke-miterlimit="10" pointer-events="none"/><path d="M 550 218 L 550 504 Q 550 514 540 514 L 155 514 Q 145 514 145 504 L 145 396.24" fill="none" stroke="rgb(0, 0, 0)" stroke-miterlimit="10" stroke-dasharray="3 3" pointer-events="none"/><path d="M 148.5 402.12 L 145 395.12 L 141.5 402.12" fill="none" stroke="rgb(0, 0, 0)" stroke-miterlimit="10" pointer-events="none"/><path d="M 126 218 L 126 319.76" fill="none" stroke="rgb(0, 0, 0)" stroke-miterlimit="10" stroke-dasharray="3 3" pointer-events="none"/><path d="M 122.5 313.88 L 126 320.88 L 129.5 313.88" fill="none" stroke="rgb(0, 0, 0)" stroke-miterlimit="10" pointer-events="none"/></g></svg>